<mxfile host="app.diagrams.net" modified="2023-09-26T13:04:02.216Z" agent="Mozilla/5.0 (Windows NT 10.0; Win64; x64) AppleWebKit/537.36 (KHTML, like Gecko) Chrome/117.0.0.0 Safari/537.36" etag="k5mxyXVfO_pcHzaWVYUL" version="21.8.2" type="device">
  <diagram name="Страница — 1" id="BUbrbz9d1bQPCysJaDnX">
    <mxGraphModel dx="709" dy="658" grid="1" gridSize="10" guides="1" tooltips="1" connect="1" arrows="1" fold="1" page="1" pageScale="1" pageWidth="1169" pageHeight="827" math="0" shadow="0">
      <root>
        <mxCell id="0" />
        <mxCell id="1" parent="0" />
        <mxCell id="6RYnWR2ASAsN9-erPQi3-1" value="Actor" style="shape=umlActor;verticalLabelPosition=bottom;verticalAlign=top;html=1;" vertex="1" parent="1">
          <mxGeometry x="130" y="230" width="30" height="60" as="geometry" />
        </mxCell>
        <mxCell id="6RYnWR2ASAsN9-erPQi3-3" value="Login system Use case diagram" style="shape=rect;html=1;verticalAlign=top;fontStyle=1;whiteSpace=wrap;align=center;" vertex="1" parent="1">
          <mxGeometry x="240" y="40" width="440" height="340" as="geometry" />
        </mxCell>
        <mxCell id="6RYnWR2ASAsN9-erPQi3-4" value="Sign up" style="ellipse;whiteSpace=wrap;html=1;" vertex="1" parent="1">
          <mxGeometry x="260" y="140" width="80" height="50" as="geometry" />
        </mxCell>
        <mxCell id="6RYnWR2ASAsN9-erPQi3-5" value="&amp;lt;&amp;lt;include&amp;gt;&amp;gt;" style="edgeStyle=none;html=1;endArrow=open;verticalAlign=bottom;dashed=1;labelBackgroundColor=none;rounded=0;" edge="1" parent="1" source="6RYnWR2ASAsN9-erPQi3-4" target="6RYnWR2ASAsN9-erPQi3-6">
          <mxGeometry width="160" relative="1" as="geometry">
            <mxPoint x="340" y="180" as="sourcePoint" />
            <mxPoint x="500" y="180" as="targetPoint" />
          </mxGeometry>
        </mxCell>
        <mxCell id="6RYnWR2ASAsN9-erPQi3-6" value="Save Basic info" style="ellipse;whiteSpace=wrap;html=1;" vertex="1" parent="1">
          <mxGeometry x="550" y="140" width="80" height="50" as="geometry" />
        </mxCell>
        <mxCell id="6RYnWR2ASAsN9-erPQi3-7" value="Requires username, email, password" style="ellipse;whiteSpace=wrap;html=1;" vertex="1" parent="1">
          <mxGeometry x="400" y="70" width="100" height="70" as="geometry" />
        </mxCell>
        <mxCell id="6RYnWR2ASAsN9-erPQi3-8" value="&amp;lt;&amp;lt;include&amp;gt;&amp;gt;" style="edgeStyle=none;html=1;endArrow=open;verticalAlign=bottom;dashed=1;labelBackgroundColor=none;rounded=0;" edge="1" parent="1" source="6RYnWR2ASAsN9-erPQi3-4" target="6RYnWR2ASAsN9-erPQi3-7">
          <mxGeometry width="160" relative="1" as="geometry">
            <mxPoint x="349" y="115" as="sourcePoint" />
            <mxPoint x="421" y="105" as="targetPoint" />
          </mxGeometry>
        </mxCell>
        <mxCell id="6RYnWR2ASAsN9-erPQi3-9" value="Creates new account" style="ellipse;whiteSpace=wrap;html=1;" vertex="1" parent="1">
          <mxGeometry x="480" y="210" width="80" height="50" as="geometry" />
        </mxCell>
        <mxCell id="6RYnWR2ASAsN9-erPQi3-10" value="&amp;lt;&amp;lt;include&amp;gt;&amp;gt;" style="edgeStyle=none;html=1;endArrow=open;verticalAlign=bottom;dashed=1;labelBackgroundColor=none;rounded=0;" edge="1" parent="1" source="6RYnWR2ASAsN9-erPQi3-4" target="6RYnWR2ASAsN9-erPQi3-9">
          <mxGeometry width="160" relative="1" as="geometry">
            <mxPoint x="350" y="175" as="sourcePoint" />
            <mxPoint x="490" y="175" as="targetPoint" />
          </mxGeometry>
        </mxCell>
        <mxCell id="6RYnWR2ASAsN9-erPQi3-11" value="Login" style="ellipse;whiteSpace=wrap;html=1;" vertex="1" parent="1">
          <mxGeometry x="260" y="290" width="80" height="50" as="geometry" />
        </mxCell>
        <mxCell id="6RYnWR2ASAsN9-erPQi3-13" value="Verify username and password" style="ellipse;whiteSpace=wrap;html=1;" vertex="1" parent="1">
          <mxGeometry x="420" y="290" width="80" height="50" as="geometry" />
        </mxCell>
        <mxCell id="6RYnWR2ASAsN9-erPQi3-14" value="&amp;lt;&amp;lt;include&amp;gt;&amp;gt;" style="edgeStyle=none;html=1;endArrow=open;verticalAlign=bottom;dashed=1;labelBackgroundColor=none;rounded=0;" edge="1" parent="1" source="6RYnWR2ASAsN9-erPQi3-11" target="6RYnWR2ASAsN9-erPQi3-13">
          <mxGeometry width="160" relative="1" as="geometry">
            <mxPoint x="310" y="340" as="sourcePoint" />
            <mxPoint x="470" y="340" as="targetPoint" />
          </mxGeometry>
        </mxCell>
        <mxCell id="6RYnWR2ASAsN9-erPQi3-15" value="System accessed" style="ellipse;whiteSpace=wrap;html=1;" vertex="1" parent="1">
          <mxGeometry x="584.5" y="290" width="80" height="50" as="geometry" />
        </mxCell>
        <mxCell id="6RYnWR2ASAsN9-erPQi3-16" value="&amp;lt;&amp;lt;include&amp;gt;&amp;gt;" style="edgeStyle=none;html=1;endArrow=open;verticalAlign=bottom;dashed=1;labelBackgroundColor=none;rounded=0;" edge="1" parent="1" source="6RYnWR2ASAsN9-erPQi3-13" target="6RYnWR2ASAsN9-erPQi3-15">
          <mxGeometry width="160" relative="1" as="geometry">
            <mxPoint x="350" y="341" as="sourcePoint" />
            <mxPoint x="471" y="329" as="targetPoint" />
          </mxGeometry>
        </mxCell>
        <mxCell id="6RYnWR2ASAsN9-erPQi3-17" value="" style="edgeStyle=none;html=1;endArrow=none;verticalAlign=bottom;rounded=0;exitX=1;exitY=0.3333333333333333;exitDx=0;exitDy=0;exitPerimeter=0;" edge="1" parent="1" source="6RYnWR2ASAsN9-erPQi3-1" target="6RYnWR2ASAsN9-erPQi3-4">
          <mxGeometry width="160" relative="1" as="geometry">
            <mxPoint x="330" y="290" as="sourcePoint" />
            <mxPoint x="490" y="290" as="targetPoint" />
          </mxGeometry>
        </mxCell>
        <mxCell id="6RYnWR2ASAsN9-erPQi3-18" value="" style="edgeStyle=none;html=1;endArrow=none;verticalAlign=bottom;rounded=0;exitX=1;exitY=0.3333333333333333;exitDx=0;exitDy=0;exitPerimeter=0;" edge="1" parent="1" source="6RYnWR2ASAsN9-erPQi3-1" target="6RYnWR2ASAsN9-erPQi3-11">
          <mxGeometry width="160" relative="1" as="geometry">
            <mxPoint x="300" y="300" as="sourcePoint" />
            <mxPoint x="460" y="300" as="targetPoint" />
          </mxGeometry>
        </mxCell>
      </root>
    </mxGraphModel>
  </diagram>
</mxfile>
